<svg width="421" height="43" viewBox="0 0 421 43" fill="none" xmlns="http://www.w3.org/2000/svg">
<path opacity="0.5" d="M18.15 36V20.05C18.15 15.1 17.16 12.9 14.135 12.9C10.835 12.9 9.075 15.375 9.075 21.15V36H1.375V7.4H8.8V12.075H9.075C9.075 12.075 11 6.575 16.775 6.575C21.395 6.575 23.87 8.775 24.97 12.13L25.025 12.075H25.3C25.3 12.075 27.775 6.575 33.55 6.575C40.7 6.575 42.625 11.8 42.625 18.4V36H34.925V20.05C34.925 15.1 33.935 12.9 30.91 12.9C27.61 12.9 25.85 15.375 25.85 21.15V36H18.15ZM45.3643 45.9V7.4H52.7893V11.25H53.0643C53.0643 11.25 55.5393 6.575 61.8643 6.575C70.1143 6.575 74.2393 13.725 74.2393 21.7C74.2393 29.675 70.1143 36.825 61.8643 36.825C55.8143 36.825 53.3393 32.975 53.3393 32.975H53.0643V45.9H45.3643ZM52.7893 21.7C52.7893 26.87 54.9893 31.05 59.6643 31.05C64.3393 31.05 66.5393 26.87 66.5393 21.7C66.5393 16.53 64.3393 12.35 59.6643 12.35C54.9893 12.35 52.7893 16.53 52.7893 21.7ZM76.4564 21.7C76.4564 13.34 81.3514 6.575 90.7564 6.575C100.161 6.575 104.506 13.34 104.506 21.7C104.506 22.36 104.451 23.35 104.451 23.35H84.2114C84.5414 27.75 86.4114 31.05 91.0314 31.05C95.7064 31.05 96.5314 26.65 96.5314 26.65H104.231C104.231 26.65 102.581 36.825 90.7564 36.825C81.1314 36.825 76.4564 30.06 76.4564 21.7ZM90.7564 12.35C86.9614 12.35 85.0914 14.88 84.4314 18.4H96.5864C96.0914 14.88 94.5514 12.35 90.7564 12.35ZM106.971 36V7.4H114.671V18.95L124.846 7.4H133.921L123.141 18.565L134.471 36H125.066L117.806 24.065L114.671 27.31V36H106.971ZM162.274 7.4V36H154.849V31.325H154.574C154.574 31.325 152.099 36.825 145.774 36.825C137.799 36.825 135.599 31.6 135.599 25V7.4H143.299V23.35C143.299 28.3 144.674 30.5 148.249 30.5C152.374 30.5 154.574 28.025 154.574 22.25V7.4H162.274ZM163.657 21.7V19.5H212.057V21.7H163.657ZM240.101 7.4V36H232.676V31.325H232.401C232.401 31.325 229.926 36.825 223.601 36.825C215.626 36.825 213.426 31.6 213.426 25V7.4H221.126V23.35C221.126 28.3 222.501 30.5 226.076 30.5C230.201 30.5 232.401 28.025 232.401 22.25V7.4H240.101ZM272.847 36V20.05C272.847 15.1 271.857 12.9 268.832 12.9C265.532 12.9 263.772 15.375 263.772 21.15V36H256.072V7.4H263.497V12.075H263.772C263.772 12.075 265.697 6.575 271.472 6.575C276.092 6.575 278.567 8.775 279.667 12.13L279.722 12.075H279.997C279.997 12.075 282.472 6.575 288.247 6.575C295.397 6.575 297.322 11.8 297.322 18.4V36H289.622V20.05C289.622 15.1 288.632 12.9 285.607 12.9C282.307 12.9 280.547 15.375 280.547 21.15V36H272.847ZM304.737 21.7C304.737 26.87 306.717 31.05 311.612 31.05C316.507 31.05 318.487 26.87 318.487 21.7C318.487 16.53 316.507 12.35 311.612 12.35C306.717 12.35 304.737 16.53 304.737 21.7ZM297.037 21.7C297.037 13.34 302.207 6.575 311.612 6.575C321.017 6.575 326.187 13.34 326.187 21.7C326.187 30.06 321.017 36.825 311.612 36.825C302.207 36.825 297.037 30.06 297.037 21.7ZM350.954 7.4V36H343.254V25H335.829C327.854 25 325.654 23.075 325.654 16.75V7.4H333.354V15.925C333.354 19.5 334.454 19.5 337.754 19.5H343.254V7.4H350.954ZM353.697 36V7.4H361.397V18.95L371.572 7.4H380.647L369.867 18.565L381.197 36H371.792L364.532 24.065L361.397 27.31V36H353.697ZM389.709 16.2H382.009C382.449 8.885 388.334 6.575 394.934 6.575C401.809 6.575 407.309 9.05 407.309 16.475V36H399.609V30.5H399.334C399.334 30.5 397.574 36.825 390.259 36.825C385.034 36.825 381.184 34.405 381.184 29.125C381.184 23.79 385.584 21.37 390.314 20.16C395.099 18.95 399.609 18.565 399.609 15.375C399.609 13.12 397.959 11.8 394.934 11.8C391.634 11.8 389.819 13.12 389.709 16.2ZM399.609 21.59C398.344 22.745 395.759 23.35 393.559 23.9C391.084 24.505 388.994 25.77 388.994 28.3C388.994 30.5 390.534 31.875 393.009 31.875C398.234 31.875 399.609 25.825 399.609 21.59ZM410.315 32.15C410.315 29.73 412.295 27.75 414.715 27.75C417.135 27.75 419.115 29.73 419.115 32.15C419.115 34.57 417.135 36.55 414.715 36.55C412.295 36.55 410.315 34.57 410.315 32.15Z" fill="white"/>
</svg>
